<?xml version="1.0"?>
<svg width="512" height="512" xmlns="http://www.w3.org/2000/svg" xmlns:svg="http://www.w3.org/2000/svg" xmlns:xlink="http://www.w3.org/1999/xlink">
 <g>
  <title>Layer 1</title>
  <g id="svg_29"/>
  <g id="svg_30"/>
  <g id="svg_31"/>
  <g id="svg_32"/>
  <g id="svg_33"/>
  <g id="svg_34"/>
  <g id="svg_35"/>
  <g id="svg_36"/>
  <g id="svg_37"/>
  <g id="svg_38"/>
  <g id="svg_39"/>
  <g id="svg_40"/>
  <g id="svg_41"/>
  <g id="svg_42"/>
  <g id="svg_43"/>
  <use x="4150.324899" y="178.267115" transform="matrix(0.12859353809850013,0,0,0.12701035432539656,-141.89791603653242,130.19318246484977) " xlink:href="#svg_46" id="svg_47"/>
  <g id="svg_48"/>
  <use x="4711.476581" y="-189.755529" transform="matrix(0.11305749848977167,0,0,0.11341936520315682,-121.94489774032981,327.3418854785787) " xlink:href="#svg_50" id="svg_51"/>
  <g id="svg_52">
   <g stroke="null" id="svg_44">
    <path stroke="null" id="svg_1" fill="#2BA5F7" d="m255.000872,187.045312c-2.071383,0 -3.749533,-1.570488 -3.749533,-3.508066l0,-23.952305c0,-1.937168 1.678149,-3.508066 3.749533,-3.508066c2.071383,0 3.749533,1.570488 3.749533,3.508066l0,23.952305c0,1.937168 -1.678149,3.508066 -3.749533,3.508066z"/>
    <rect stroke="null" id="svg_2" fill="#E09B2D" height="14.266055" width="56.267541" y="235.577051" x="226.866444"/>
    <path stroke="null" id="svg_3" fill="#F95428" d="m302.401138,183.241934l0,56.076973l-19.267592,0l-56.267102,0l-19.267592,0l0,-56.076973c0,-6.553066 5.679317,-11.866641 12.683442,-11.866641l34.720331,0l34.715509,0c7.008509,0.00041 12.683004,5.313984 12.683004,11.866641z"/>
    <path stroke="null" id="svg_4" fill="#E54728" d="m228.780885,171.375703l-8.499029,0c-7.004125,0 -12.683442,5.313574 -12.683442,11.866641l0,56.076973l8.499029,0l0,-56.077383c0.000438,-6.552656 5.679755,-11.86623 12.683442,-11.86623z"/>
    <g stroke="null" id="svg_5">
     <rect stroke="null" id="svg_6" fill="#F7B239" height="49.753184" width="14.647859" y="299.208281" x="218.002677"/>
     <rect stroke="null" id="svg_7" fill="#F7B239" height="49.753184" width="14.643037" y="299.208281" x="277.354277"/>
    </g>
    <path stroke="null" id="svg_8" fill="#E09B2D" d="m277.354277,299.675859l0,17.268809l14.643037,0l0,-17.268809l-14.643037,0zm-59.3516,17.268809l14.647859,0l0,-17.268809l-14.647859,0l0,17.268809z"/>
    <g stroke="null" id="svg_9">
     <rect stroke="null" id="svg_10" fill="#F7B239" height="14.425195" width="27.311135" y="258.318574" x="295.681965"/>
     <rect stroke="null" id="svg_11" fill="#F7B239" height="14.425195" width="27.691218" y="258.318574" x="186.81663"/>
     <path stroke="null" id="svg_12" fill="#F7B239" d="m231.875466,194.533125c7.239101,0 13.103418,5.491172 13.103418,12.25957c0,6.77291 -5.864317,12.25957 -13.103418,12.25957c-7.233841,0 -13.098157,-5.48666 -13.098157,-12.25957c0,-6.768398 5.864317,-12.25957 13.098157,-12.25957z"/>
     <path stroke="null" id="svg_13" fill="#F7B239" d="m278.124525,194.533125c7.233841,0 13.103418,5.491172 13.103418,12.25957c0,6.77291 -5.869139,12.25957 -13.103418,12.25957c-7.239101,0 -13.103418,-5.48666 -13.103418,-12.25957c0,-6.768398 5.864317,-12.25957 13.103418,-12.25957z"/>
    </g>
    <g stroke="null" id="svg_14">
     <polygon stroke="null" id="svg_15" fill="#F95428" points="241.12939453125,343.41412353515625 241.12939453125,360 209.52381896972656,360 209.52381896972656,343.41412353515625 218.002685546875,343.41412353515625 232.65054321289062,343.41412353515625 "/>
     <polygon stroke="null" id="svg_16" fill="#F95428" points="300.4761657714844,343.41412353515625 300.4761657714844,360 268.8753967285156,360 268.8753967285156,343.41412353515625 277.3542785644531,343.41412353515625 291.997314453125,343.41412353515625 "/>
     <path stroke="null" id="svg_17" fill="#F95428" d="m325.25299,260.582637l0,57.5925l-13.978002,0l0,-45.431367l0,-14.425195l0,-10.81418l0,0c7.720013,0 13.978002,5.855391 13.978002,13.078242z"/>
     <path stroke="null" id="svg_18" fill="#F95428" d="m198.725002,272.74377l0,45.431367l-13.978002,0l0,-57.5925c0,-7.222852 6.257989,-13.077832 13.978002,-13.077832l0,0l0,10.81418l0,14.424785z"/>
    </g>
    <path stroke="null" id="svg_19" fill="#2BA5F7" d="m302.401138,272.74377l0,32.011875l-10.403386,0l0,-0.004512l-14.643037,0l0,0.004512l-44.70418,0l0,-0.004512l-14.647859,0l0,0.004512l-10.403386,0l0,-32.011875l0,-14.425195l0,-10.81418l19.267592,0l56.267541,0l19.267592,0l0,10.81418l-0.000877,14.425195l0,0z"/>
    <rect stroke="null" id="svg_20" fill="#2197D8" height="57.246328" width="16.677595" y="247.504395" x="207.598852"/>
    <g stroke="null" id="svg_21">
     <path stroke="null" id="svg_22" fill="#4D4D4D" d="m248.73017,206.793105c0,-8.693672 -7.560001,-15.766816 -16.852074,-15.766816c-9.292949,0 -16.852512,7.073145 -16.852512,15.766816s7.560001,15.766816 16.852512,15.766816c9.292072,0 16.852074,-7.073145 16.852074,-15.766816zm-26.205959,0c0,-4.825078 4.19625,-8.751094 9.353885,-8.751094s9.353447,3.925605 9.353447,8.751094c0,4.825078 -4.195812,8.751094 -9.353447,8.751094s-9.353885,-3.926016 -9.353885,-8.751094z"/>
     <path stroke="null" id="svg_23" fill="#4D4D4D" d="m278.124086,222.559922c9.292072,0 16.852074,-7.073145 16.852074,-15.766816s-7.560001,-15.766816 -16.852074,-15.766816c-9.292949,0 -16.852512,7.073145 -16.852512,15.766816s7.559563,15.766816 16.852512,15.766816zm0,-24.51832c5.157197,0 9.353008,3.925605 9.353008,8.751094s-4.195812,8.751094 -9.353008,8.751094s-9.353885,-3.925605 -9.353885,-8.751094s4.19625,-8.751094 9.353885,-8.751094z"/>
     <circle stroke="null" id="svg_24" fill="#4D4D4D" r="3.508064" cy="261.204434" cx="281.423833"/>
     <circle stroke="null" id="svg_25" fill="#4D4D4D" r="3.508064" cy="261.204434" cx="228.576157"/>
    </g>
    <circle stroke="null" id="svg_26" fill="#F7B239" r="6.076875" cy="156.076875" cx="255.002626"/>
    <path stroke="null" id="svg_27" fill="#E09B2D" d="m275.809836,285.723164l-41.619243,0c0,-4.54166 1.664998,-8.723203 4.4492,-12.034805c3.814414,-4.527715 9.723885,-7.436953 16.362833,-7.436953c11.493219,0 20.807211,8.718691 20.807211,19.471758z"/>
    <path stroke="null" id="svg_28" fill="#F7B239" d="m272.015149,285.723164l-37.824995,0c0,-4.54166 1.664998,-8.723203 4.4492,-12.034805c3.539545,-2.605312 8.004088,-4.162676 12.863181,-4.162676c10.29905,0 18.852877,7.001777 20.512614,16.19748z"/>
   </g>
  </g>
  <use x="19.345785" y="-276.943289" transform="matrix(0.16344591654637064,0,0,0.14287906862275346,35.166363537311554,126.8942480070973) " xlink:href="#svg_54" id="svg_55"/>
  <g id="svg_56"/>
 </g>
 <defs>
  <symbol viewBox="0 0 508.082 508.082" y="0px" x="0px" id="svg_46" xmlns:xlink="http://www.w3.org/1999/xlink" xmlns="http://www.w3.org/2000/svg">
   <ellipse fill="#40596B" ry="254" rx="253.2" cy="254.041" cx="253.2"/>
   <path fill="#F2F2F2" d="m253.2,451.541c-108.6,0 -196.9,-88.6 -196.9,-197.5s88.3,-197.5 196.9,-197.5s196.9,88.6 196.9,197.5s-88.3,197.5 -196.9,197.5z"/>
   <path fill="#E5E8EA" d="m253.2,56.541c-108.6,0 -196.9,88.6 -196.9,197.5c0,3.8 0.1,7.5 0.3,11.3c5.9,-103.7 91.8,-186.3 196.6,-186.3s190.7,82.6 196.6,186.3c0.2,-3.7 0.3,-7.5 0.3,-11.3c0,-108.9 -88.3,-197.5 -196.9,-197.5z"/>
   <g>
    <path fill="#FFD15C" d="m178.8,323.041l0,0c5.2,6.2 14.5,7 20.7,1.7l62.3,-53c6.2,-5.3 6.9,-14.6 1.7,-20.8l0,0c-5.2,-6.2 -14.5,-7 -20.7,-1.7l-62.3,53c-6.1,5.3 -6.9,14.6 -1.7,20.8z"/>
    <path fill="#FFD15C" d="m266.5,262.441l-26.6,0c-0.8,0 -1.4,-0.6 -1.4,-1.4l0,-148.5c0,-0.8 0.6,-1.4 1.4,-1.4l26.6,0c0.8,0 1.4,0.6 1.4,1.4l0,148.5c0,0.7 -0.7,1.4 -1.4,1.4z"/>
   </g>
   <ellipse fill="#FF7058" ry="37.9" rx="37.7" cy="251.041" cx="253.2"/>
   <ellipse fill="#F2F2F2" ry="18.9" rx="18.8" cy="251.041" cx="253.2"/>
   <path fill="#4CDBC4" d="m474.2,328.241l-140.7,0c-15.5,0 -29,10.6 -32.8,25.7l-27.7,112.1c-5.3,21.4 10.8,42 32.8,42l140.7,0c15.5,0 29,-10.6 32.8,-25.7l27.8,-112c5.2,-21.4 -10.9,-42.1 -32.9,-42.1z"/>
   <path fill="#CDD6E0" d="m266.5,79.541c-4.4,-0.3 -8.8,-0.5 -13.3,-0.5c-4.5,0 -8.9,0.2 -13.3,0.5c1.6,-5.9 7,-10.2 13.3,-10.2c6.4,0 11.7,4.3 13.3,10.2z"/>
   <g>
    <path fill="#FFFFFF" d="m348.9,436.241l0,10l-37.7,0c0.4,-3.8 1.6,-7.4 3.7,-10.8c2,-3.4 6.1,-7.9 12.1,-13.5c4.9,-4.5 7.8,-7.6 8.9,-9.2c1.5,-2.2 2.2,-4.4 2.2,-6.6c0,-2.4 -0.6,-4.3 -1.9,-5.6s-3.1,-1.9 -5.3,-1.9c-2.2,0 -4,0.7 -5.4,2c-1.3,1.4 -2.1,3.6 -2.3,6.8l-10.7,-1.1c0.6,-5.9 2.6,-10.2 6,-12.8s7.6,-3.9 12.6,-3.9c5.5,0 9.9,1.5 13.1,4.5s4.7,6.7 4.7,11.2c0,2.5 -0.5,5 -1.4,7.2c-0.9,2.3 -2.3,4.7 -4.3,7.2c-1.3,1.7 -3.7,4.1 -7,7.2c-3.4,3.1 -5.5,5.2 -6.5,6.2c-0.9,1 -1.6,2 -2.2,3l21.4,0l0,0.1z"/>
    <path fill="#FFFFFF" d="m377.2,446.341l0,-11.3l-23,0l0,-9.5l24.4,-35.8l9,0l0,35.7l7,0l0,9.5l-7,0l0,11.3l-10.4,0l0,0.1zm0,-20.9l0,-19.2l-12.9,19.2l12.9,0z"/>
    <path fill="#FFFFFF" d="m396.3,447.241l13.9,-58.2l8.1,0l-14.1,58.2l-7.9,0z"/>
    <path fill="#FFFFFF" d="m424,446.341l0,-56.3l11.3,0l0,22.2l22.2,0l0,-22.2l11.3,0l0,56.3l-11.3,0l0,-24.6l-22.2,0l0,24.6l-11.3,0z"/>
   </g>
   <g>
    <ellipse fill="#40596B" ry="13.8" rx="13.8" cy="424.841" cx="253.2"/>
    <ellipse fill="#40596B" ry="13.8" rx="13.8" cy="254.041" cx="423.5"/>
    <ellipse fill="#40596B" ry="13.8" rx="13.8" cy="254.041" cx="82.9"/>
    <path fill="#40596B" d="m253.2,69.341c-6.4,0 -11.8,4.3 -13.3,10.2c-0.3,1.2 -0.5,2.4 -0.5,3.7c0,7.6 6.2,13.8 13.8,13.8c7.6,0 13.8,-6.2 13.8,-13.8c0,-1.3 -0.2,-2.5 -0.5,-3.7c-1.6,-5.9 -6.9,-10.2 -13.3,-10.2z"/>
   </g>
   <g/>
   <g/>
   <g/>
   <g/>
   <g/>
   <g/>
   <g/>
   <g/>
   <g/>
   <g/>
   <g/>
   <g/>
   <g/>
   <g/>
   <g/>
  </symbol>
  <symbol viewBox="0 0 512 512" y="0px" x="0px" id="svg_50" xmlns:xlink="http://www.w3.org/1999/xlink" xmlns="http://www.w3.org/2000/svg">
   <g>
    <path fill="#A5EB78" d="m379.586,44.138l-185.379,0c-9.751,0 -17.655,-7.904 -17.655,-17.655l0,0c0,-9.751 7.904,-17.655 17.655,-17.655l185.379,0c9.751,0 17.655,7.904 17.655,17.655l0,0c0,9.751 -7.904,17.655 -17.655,17.655z"/>
    <path fill="#A5EB78" d="m70.621,0c-39.003,0 -70.621,31.618 -70.621,70.621s31.618,70.621 70.621,70.621s70.621,-31.618 70.621,-70.621s-31.619,-70.621 -70.621,-70.621zm41.551,53.323l-47.082,47.078c-1.725,1.725 -3.982,2.586 -6.241,2.586c-2.259,0 -4.518,-0.862 -6.241,-2.586l-23.539,-23.539c-3.448,-3.448 -3.448,-9.035 0,-12.483c3.448,-3.448 9.035,-3.448 12.483,0l17.297,17.299l40.841,-40.837c3.448,-3.448 9.035,-3.448 12.483,0c3.449,3.448 3.447,9.034 -0.001,12.482z"/>
   </g>
   <g>
    <path fill="#AFB9D2" d="m467.862,88.276l-176.552,0c-4.875,0 -8.828,-3.953 -8.828,-8.828c0,-4.875 3.953,-8.828 8.828,-8.828l176.552,0c4.875,0 8.828,3.953 8.828,8.828c0,4.875 -3.953,8.828 -8.828,8.828z"/>
    <path fill="#AFB9D2" d="m256.004,88.276l-70.625,0c-4.875,0 -8.828,-3.953 -8.828,-8.828c0,-4.875 3.953,-8.828 8.828,-8.828l70.625,0c4.875,0 8.828,3.953 8.828,8.828c0,4.875 -3.953,8.828 -8.828,8.828z"/>
   </g>
   <g>
    <path fill="#C7CFE2" d="m503.172,123.586l-52.966,0c-4.875,0 -8.828,-3.953 -8.828,-8.828c0,-4.875 3.953,-8.828 8.828,-8.828l52.966,0c4.875,0 8.828,3.953 8.828,8.828c0,4.876 -3.953,8.828 -8.828,8.828z"/>
    <path fill="#C7CFE2" d="m414.892,123.586l-229.513,0c-4.875,0 -8.828,-3.953 -8.828,-8.828c0,-4.875 3.953,-8.828 8.828,-8.828l229.513,0c4.875,0 8.828,3.953 8.828,8.828c0,4.876 -3.953,8.828 -8.828,8.828z"/>
   </g>
   <g>
    <path fill="#A5EB78" d="m379.586,229.517l-185.379,0c-9.751,0 -17.655,-7.904 -17.655,-17.655l0,0c0,-9.751 7.904,-17.655 17.655,-17.655l185.379,0c9.751,0 17.655,7.904 17.655,17.655l0,0c0,9.751 -7.904,17.655 -17.655,17.655z"/>
    <path fill="#A5EB78" d="m70.621,185.379c-39.003,0 -70.621,31.619 -70.621,70.621s31.618,70.621 70.621,70.621s70.621,-31.618 70.621,-70.621s-31.619,-70.621 -70.621,-70.621zm41.551,53.323l-47.082,47.078c-1.725,1.725 -3.982,2.586 -6.241,2.586c-2.259,0 -4.518,-0.862 -6.241,-2.586l-23.539,-23.539c-3.448,-3.448 -3.448,-9.035 0,-12.483c3.448,-3.448 9.035,-3.448 12.483,0l17.298,17.298l40.841,-40.836c3.448,-3.448 9.035,-3.448 12.483,0c3.449,3.447 3.446,9.034 -0.002,12.482z"/>
   </g>
   <g>
    <path fill="#AFB9D2" d="m467.862,273.655l-176.552,0c-4.875,0 -8.828,-3.953 -8.828,-8.828s3.953,-8.827 8.828,-8.827l176.552,0c4.875,0 8.828,3.953 8.828,8.828s-3.953,8.827 -8.828,8.827z"/>
    <path fill="#AFB9D2" d="m256.004,273.655l-70.625,0c-4.875,0 -8.828,-3.953 -8.828,-8.828s3.953,-8.828 8.828,-8.828l70.625,0c4.875,0 8.828,3.953 8.828,8.828s-3.953,8.828 -8.828,8.828z"/>
   </g>
   <g>
    <path fill="#C7CFE2" d="m503.172,308.966l-52.966,0c-4.875,0 -8.828,-3.953 -8.828,-8.828s3.953,-8.828 8.828,-8.828l52.966,0c4.875,0 8.828,3.953 8.828,8.828s-3.953,8.828 -8.828,8.828z"/>
    <path fill="#C7CFE2" d="m414.892,308.966l-229.513,0c-4.875,0 -8.828,-3.953 -8.828,-8.828s3.953,-8.828 8.828,-8.828l229.513,0c4.875,0 8.828,3.953 8.828,8.828s-3.953,8.828 -8.828,8.828z"/>
   </g>
   <g>
    <path fill="#EFF2FA" d="m353.103,414.897l-158.896,0c-9.751,0 -17.655,-7.904 -17.655,-17.655l0,0c0,-9.751 7.904,-17.655 17.655,-17.655l158.897,0c9.751,0 17.655,7.904 17.655,17.655l0,0c0,9.751 -7.904,17.655 -17.656,17.655z"/>
    <path fill="#EFF2FA" d="m70.621,370.759c-39.003,0 -70.621,31.618 -70.621,70.62s31.618,70.621 70.621,70.621s70.621,-31.618 70.621,-70.621s-31.619,-70.62 -70.621,-70.62z"/>
   </g>
   <g>
    <path fill="#AFB9D2" d="m467.862,459.034l-176.552,0c-4.875,0 -8.828,-3.953 -8.828,-8.828c0,-4.875 3.953,-8.828 8.828,-8.828l176.552,0c4.875,0 8.828,3.953 8.828,8.828c0,4.876 -3.953,8.828 -8.828,8.828z"/>
    <path fill="#AFB9D2" d="m256.004,459.034l-70.625,0c-4.875,0 -8.828,-3.953 -8.828,-8.828c0,-4.875 3.953,-8.828 8.828,-8.828l70.625,0c4.875,0 8.828,3.953 8.828,8.828c0,4.876 -3.953,8.828 -8.828,8.828z"/>
   </g>
   <g>
    <path fill="#C7CFE2" d="m503.172,494.345l-52.966,0c-4.875,0 -8.828,-3.953 -8.828,-8.828s3.953,-8.828 8.828,-8.828l52.966,0c4.875,0 8.828,3.953 8.828,8.828s-3.953,8.828 -8.828,8.828z"/>
    <path fill="#C7CFE2" d="m414.892,494.345l-229.513,0c-4.875,0 -8.828,-3.953 -8.828,-8.828s3.953,-8.828 8.828,-8.828l229.513,0c4.875,0 8.828,3.953 8.828,8.828s-3.953,8.828 -8.828,8.828z"/>
   </g>
   <g/>
   <g/>
   <g/>
   <g/>
   <g/>
   <g/>
   <g/>
   <g/>
   <g/>
   <g/>
   <g/>
   <g/>
   <g/>
   <g/>
   <g/>
  </symbol>
  <symbol viewBox="0 0 512.005 512.005" y="0px" x="0px" id="svg_54" xmlns:xlink="http://www.w3.org/1999/xlink" xmlns="http://www.w3.org/2000/svg">
   <rect fill="#CCCCCC" height="378.994" width="511.993" y="22.719" x="0.007"/>
   <polygon fill="#E6E6E6" points="512,22.719 512,401.712 194.232,401.712 300.494,22.719 "/>
   <rect fill="#F9C573" height="57.15" width="511.993" y="22.719" x="0.007"/>
   <polygon fill="#FCD8A9" points="512,22.719 512,79.869 284.467,79.869 300.494,22.719 "/>
   <rect fill="#B3B3B3" height="11.182" width="512.005" y="74.274"/>
   <circle fill="#F94B54" r="9.318" cy="52.531" cx="31.308"/>
   <circle fill="#61BCE0" r="9.318" cy="52.531" cx="91.565"/>
   <circle fill="#F2F2F2" r="9.318" cy="52.531" cx="61.437"/>
   <rect fill="#9BD7F4" height="316.787" width="199.393" y="172.497" x="249.995"/>
   <polygon fill="#C8EDFC" points="449.389,172.5 449.389,489.286 288.499,489.286 377.318,172.5 "/>
   <g>
    <rect fill="#4D4D4D" height="18.636" width="294.449" y="118.018" x="36.913"/>
    <rect fill="#4D4D4D" height="18.636" width="156.542" y="157.054" x="36.909"/>
    <rect fill="#4D4D4D" height="18.636" width="38.514" y="196.09" x="36.909"/>
    <rect fill="#4D4D4D" height="18.636" width="183.875" y="235.114" x="36.909"/>
    <rect fill="#4D4D4D" height="18.636" width="93.18" y="274.15" x="36.909"/>
    <rect fill="#4D4D4D" height="18.636" width="110.574" y="313.186" x="36.909"/>
    <rect fill="#4D4D4D" height="18.636" width="181.39" y="352.21" x="36.913"/>
    <rect fill="#4D4D4D" height="13.666" width="122.687" y="265.242" x="279.179"/>
    <rect fill="#4D4D4D" height="13.666" width="82.011" y="295.395" x="279.179"/>
    <rect fill="#4D4D4D" height="13.666" width="23.516" y="325.536" x="279.192"/>
    <rect fill="#4D4D4D" height="13.666" width="95.553" y="355.676" x="279.179"/>
    <rect fill="#4D4D4D" height="13.666" width="140.08" y="385.829" x="279.179"/>
    <rect fill="#4D4D4D" height="13.666" width="59.225" y="415.97" x="279.179"/>
    <rect fill="#4D4D4D" height="13.666" width="94.323" y="446.123" x="279.179"/>
   </g>
   <rect fill="#F94B54" height="59.635" width="199.393" y="172.497" x="249.995"/>
   <polygon fill="#F98791" points="449.389,172.5 449.389,232.135 360.595,232.135 377.318,172.5 "/>
   <circle fill="#F9C573" r="9.318" cy="202.911" cx="280.546"/>
   <circle fill="#61BCE0" r="9.318" cy="202.911" cx="340.802"/>
   <circle fill="#F2F2F2" r="9.318" cy="202.911" cx="310.674"/>
   <g>
    <polygon fill="#808080" points="208.115,352.213 218.303,352.213 218.303,370.849 202.885,370.849  "/>
    <polygon fill="#808080" points="331.361,118.02 331.361,136.656 268.558,136.656 273.776,118.02  "/>
    <polygon fill="#808080" points="338.406,429.639 305.221,429.639 309.048,415.973 338.406,415.973  "/>
    <polygon fill="#808080" points="361.191,309.064 339.027,309.064 342.866,295.398 361.191,295.398  "/>
    <polygon fill="#808080" points="300.6,446.126 373.504,446.126 373.504,459.792 296.773,459.792  "/>
    <polygon fill="#808080" points="374.734,369.345 322.13,369.345 325.957,355.679 374.734,355.679  "/>
    <polygon fill="#808080" points="401.868,278.911 347.488,278.911 351.314,265.245 401.868,265.245  "/>
    <polygon fill="#808080" points="419.261,385.832 419.261,399.498 313.67,399.498 317.509,385.832  "/>
   </g>
   <rect fill="#61BCE0" height="9.939" width="199.393" y="227.163" x="249.995"/>
   <g/>
   <g/>
   <g/>
   <g/>
   <g/>
   <g/>
   <g/>
   <g/>
   <g/>
   <g/>
   <g/>
   <g/>
   <g/>
   <g/>
   <g/>
  </symbol>
 </defs>
</svg>